<mxfile host="app.diagrams.net" modified="2023-02-14T09:42:22.007Z" agent="5.0 (Macintosh; Intel Mac OS X 10_15_7) AppleWebKit/537.36 (KHTML, like Gecko) Chrome/108.0.0.0 Safari/537.36" version="20.8.1" etag="RZkTypQgIjrAVxznhcE6" type="github">
  <diagram id="3KrxQ06DoBBIPZEIYA_K" name="第 1 页">
    <mxGraphModel dx="1434" dy="796" grid="1" gridSize="10" guides="1" tooltips="1" connect="1" arrows="1" fold="1" page="1" pageScale="1" pageWidth="827" pageHeight="1169" math="0" shadow="0">
      <root>
        <mxCell id="0" />
        <mxCell id="1" parent="0" />
        <mxCell id="cEkouKCKPJAiYyB3isqj-7" value="" style="edgeStyle=orthogonalEdgeStyle;rounded=0;orthogonalLoop=1;jettySize=auto;html=1;" edge="1" parent="1" source="cEkouKCKPJAiYyB3isqj-1" target="cEkouKCKPJAiYyB3isqj-5">
          <mxGeometry relative="1" as="geometry" />
        </mxCell>
        <mxCell id="cEkouKCKPJAiYyB3isqj-1" value="部署圈内地磅" style="rounded=1;whiteSpace=wrap;html=1;" vertex="1" parent="1">
          <mxGeometry x="400" y="100" width="120" height="60" as="geometry" />
        </mxCell>
        <mxCell id="cEkouKCKPJAiYyB3isqj-8" style="edgeStyle=orthogonalEdgeStyle;rounded=0;orthogonalLoop=1;jettySize=auto;html=1;exitX=0;exitY=0.5;exitDx=0;exitDy=0;entryX=0.5;entryY=0;entryDx=0;entryDy=0;" edge="1" parent="1" source="cEkouKCKPJAiYyB3isqj-3" target="cEkouKCKPJAiYyB3isqj-4">
          <mxGeometry relative="1" as="geometry" />
        </mxCell>
        <mxCell id="cEkouKCKPJAiYyB3isqj-9" style="edgeStyle=orthogonalEdgeStyle;rounded=0;orthogonalLoop=1;jettySize=auto;html=1;exitX=1;exitY=0.5;exitDx=0;exitDy=0;entryX=0.583;entryY=-0.05;entryDx=0;entryDy=0;entryPerimeter=0;" edge="1" parent="1" source="cEkouKCKPJAiYyB3isqj-3" target="cEkouKCKPJAiYyB3isqj-6">
          <mxGeometry relative="1" as="geometry" />
        </mxCell>
        <mxCell id="cEkouKCKPJAiYyB3isqj-3" value="猪只在一侧饮水、一侧吃食" style="rounded=1;whiteSpace=wrap;html=1;" vertex="1" parent="1">
          <mxGeometry x="400" y="270" width="120" height="60" as="geometry" />
        </mxCell>
        <mxCell id="cEkouKCKPJAiYyB3isqj-4" value="机器人拍摄猪只吃食照片" style="rounded=1;whiteSpace=wrap;html=1;" vertex="1" parent="1">
          <mxGeometry x="310" y="350" width="120" height="60" as="geometry" />
        </mxCell>
        <mxCell id="cEkouKCKPJAiYyB3isqj-10" style="edgeStyle=orthogonalEdgeStyle;rounded=0;orthogonalLoop=1;jettySize=auto;html=1;exitX=0.5;exitY=1;exitDx=0;exitDy=0;entryX=0.5;entryY=0;entryDx=0;entryDy=0;" edge="1" parent="1" source="cEkouKCKPJAiYyB3isqj-5" target="cEkouKCKPJAiYyB3isqj-3">
          <mxGeometry relative="1" as="geometry" />
        </mxCell>
        <mxCell id="cEkouKCKPJAiYyB3isqj-5" value="猪只背部画标" style="rounded=1;whiteSpace=wrap;html=1;" vertex="1" parent="1">
          <mxGeometry x="400" y="190" width="120" height="60" as="geometry" />
        </mxCell>
        <mxCell id="cEkouKCKPJAiYyB3isqj-6" value="猪只上地磅后拍摄深度图像并上传体重" style="rounded=1;whiteSpace=wrap;html=1;" vertex="1" parent="1">
          <mxGeometry x="470" y="350" width="120" height="60" as="geometry" />
        </mxCell>
      </root>
    </mxGraphModel>
  </diagram>
</mxfile>
